<svg id="Capa_1" enable-background="new 0 0 512 512" height="512" viewBox="0 0 512 512" width="512" xmlns="http://www.w3.org/2000/svg"><g><g><path d="m392.002 260c-3.445 0-6.856-1.186-9.605-3.477l-55.828-46.523h-141.138l-55.828 46.523c-4.471 3.726-10.695 4.529-15.965 2.061-5.271-2.469-8.638-7.764-8.638-13.584v-35c-57.897 0-105-47.103-105-105s47.103-105 105-105h302c57.897 0 105 47.103 105 105s-47.103 105-105 105v35c0 5.82-3.367 11.115-8.638 13.584-2.029.951-4.201 1.416-6.36 1.416z" fill="#e9f7ff"/></g><g><path d="m407 0h-151v210h70.569l55.828 46.523c2.75 2.291 6.16 3.477 9.605 3.477 2.158 0 4.33-.465 6.36-1.416 5.271-2.469 8.638-7.764 8.638-13.584v-35c57.897 0 105-47.103 105-105s-47.103-105-105-105z" fill="#dce6f5"/></g><g><path d="m225 512h-210c-8.284 0-15-6.716-15-15 0-66.168 53.832-120 120-120s120 53.832 120 120c0 8.284-6.716 15-15 15z" fill="#6e75e2"/><path d="m120 377v135h105c8.284 0 15-6.716 15-15 0-66.168-53.832-120-120-120z" fill="#4540c6"/><path d="m120 407c-37.22 0-67.5-30.28-67.5-67.5s30.28-67.5 67.5-67.5 67.5 30.28 67.5 67.5-30.28 67.5-67.5 67.5z" fill="#ffd3aa"/><path d="m120 272v135c37.22 0 67.5-30.28 67.5-67.5s-30.28-67.5-67.5-67.5z" fill="#fac18f"/></g><g><path d="m497 512h-210c-8.284 0-15-6.716-15-15 0-66.168 53.832-120 120-120s120 53.832 120 120c0 8.284-6.716 15-15 15z" fill="#ff4a4a"/><path d="m392 377v135h105c8.284 0 15-6.716 15-15 0-66.168-53.832-120-120-120z" fill="#c30047"/><path d="m392 407c-37.22 0-67.5-30.28-67.5-67.5s30.28-67.5 67.5-67.5 67.5 30.28 67.5 67.5-30.28 67.5-67.5 67.5z" fill="#ffd3aa"/><path d="m392 272v135c37.22 0 67.5-30.28 67.5-67.5s-30.28-67.5-67.5-67.5z" fill="#fac18f"/></g><g><path d="m427 90h-342c-8.284 0-15-6.716-15-15s6.716-15 15-15h342c8.284 0 15 6.716 15 15s-6.716 15-15 15z" fill="#0a617d"/></g><g><path d="m427 150h-342c-8.284 0-15-6.716-15-15s6.716-15 15-15h342c8.284 0 15 6.716 15 15s-6.716 15-15 15z" fill="#0a617d"/></g><g fill="#08475e"><path d="m442 75c0-8.284-6.716-15-15-15h-171v30h171c8.284 0 15-6.716 15-15z"/><path d="m427 120h-171v30h171c8.284 0 15-6.716 15-15s-6.716-15-15-15z"/></g></g></svg>