<svg id="Capa_1" enable-background="new 0 0 512 512" height="512" viewBox="0 0 512 512" width="512" xmlns="http://www.w3.org/2000/svg"><g><path d="m496.999 310c-1.439 0-2.891-.207-4.31-.633l-61.47-18.44c-17.431 9.568-36.202 15.604-55.893 17.963-4.575.546-9.136-1.033-12.39-4.286l-155.563-155.543c-3.247-3.247-4.828-7.802-4.292-12.361 9.178-77.932 75.348-136.7 153.919-136.7 85.467 0 155 69.532 155 155 0 25.883-6.576 51.399-19.075 74.214l18.442 61.476c1.586 5.286.142 11.016-3.761 14.917-2.854 2.854-6.686 4.393-10.607 4.393z" fill="#bcfbff"/><path d="m357 0v298.667l5.937 5.936c3.254 3.253 7.814 4.832 12.39 4.286 19.69-2.358 38.462-8.395 55.893-17.963l61.47 18.44c1.419.426 2.87.633 4.31.633 3.921 0 7.753-1.539 10.607-4.394 3.902-3.901 5.347-9.631 3.761-14.917l-18.442-61.476c12.498-22.812 19.074-48.329 19.074-74.212 0-85.467-69.533-155-155-155z" fill="#00e4ef"/><path d="m407 140h-100c-8.284 0-15-6.716-15-15s6.716-15 15-15h100c8.284 0 15 6.716 15 15s-6.716 15-15 15z" fill="#0a617d"/><path d="m407 200h-89.641c-8.284 0-15-6.716-15-15s6.716-15 15-15h89.641c8.284 0 15 6.716 15 15s-6.716 15-15 15z" fill="#0a617d"/><path d="m15.003 512c-3.916.001-7.749-1.534-10.608-4.394-4.018-4.018-5.421-9.96-3.624-15.35l25.775-77.325c-17.388-29.814-26.545-63.519-26.545-97.931 0-107.523 87.477-195 195-195s195 87.477 195 195-87.477 195-195 195c-34.413 0-68.118-9.157-97.933-26.545l-77.324 25.775c-1.554.518-3.154.77-4.741.77z" fill="#e9f7ff"/><path d="m195.001 122v390c107.523 0 195-87.477 195-195s-87.477-195-195-195z" fill="#dce6f5"/><path d="m275.001 272h-160c-8.284 0-15-6.716-15-15s6.716-15 15-15h160c8.284 0 15 6.716 15 15s-6.716 15-15 15z" fill="#0a617d"/><path d="m275.001 332h-160c-8.284 0-15-6.716-15-15s6.716-15 15-15h160c8.284 0 15 6.716 15 15s-6.716 15-15 15z" fill="#0a617d"/><path d="m275.001 392h-160c-8.284 0-15-6.716-15-15s6.716-15 15-15h160c8.284 0 15 6.716 15 15s-6.716 15-15 15z" fill="#0a617d"/><g fill="#08475e"><path d="m290.001 257c0-8.284-6.716-15-15-15h-80v30h80c8.284 0 15-6.716 15-15z"/><path d="m290.001 317c0-8.284-6.716-15-15-15h-80v30h80c8.284 0 15-6.716 15-15z"/><path d="m290.001 377c0-8.284-6.716-15-15-15h-80v30h80c8.284 0 15-6.716 15-15z"/><path d="m422 125c0-8.284-6.716-15-15-15h-50v30h50c8.284 0 15-6.716 15-15z"/><path d="m422 185c0-8.284-6.716-15-15-15h-50v30h50c8.284 0 15-6.716 15-15z"/></g></g></svg>