<svg id="Capa_1" enable-background="new 0 0 512 512" height="512" viewBox="0 0 512 512" width="512" xmlns="http://www.w3.org/2000/svg"><g><g><path d="m361 512h-210c-8.284 0-15-6.716-15-15 0-66.168 53.832-120 120-120s120 53.832 120 120c0 8.284-6.716 15-15 15z" fill="#6e75e2"/><path d="m256 377v135h105c8.284 0 15-6.716 15-15 0-66.168-53.832-120-120-120z" fill="#4540c6"/><path d="m256 407c-37.22 0-67.5-30.28-67.5-67.5s30.28-67.5 67.5-67.5 67.5 30.28 67.5 67.5-30.28 67.5-67.5 67.5z" fill="#ffd3aa"/><path d="m256 272v135c37.22 0 67.5-30.28 67.5-67.5s-30.28-67.5-67.5-67.5z" fill="#fac18f"/></g><g><g><g><path d="m86.003 310c-3.516 0-6.992-1.234-9.765-3.611l-70-60c-3.325-2.85-5.238-7.01-5.238-11.389v-220c0-8.284 6.716-15 15-15h480c8.284 0 15 6.716 15 15v220c0 8.284-6.716 15-15 15h-395v45c0 5.858-3.41 11.18-8.732 13.628-2.004.921-4.142 1.372-6.265 1.372z" fill="#e9f7ff"/></g></g></g><path d="m496 0h-240v250h240c8.284 0 15-6.716 15-15v-220c0-8.284-6.716-15-15-15z" fill="#dce6f5"/><path d="m175.663 94.022h-9.064l5.61-26.987c1.124-5.407-2.349-10.702-7.756-11.826-5.416-1.13-10.702 2.349-11.826 7.755l-6.456 31.058h-7.679l5.61-26.987c1.124-5.407-2.349-10.702-7.756-11.826-5.416-1.13-10.702 2.349-11.826 7.755l-6.456 31.058h-13.188c-5.522 0-10 4.477-10 10s4.478 10 10 10h9.03l-4.426 21.292h-13.143c-5.522 0-10 4.477-10 10s4.478 10 10 10h8.986l-5.748 27.65c-1.124 5.407 2.349 10.702 7.756 11.826.687.143 1.371.211 2.045.211 4.64 0 8.8-3.246 9.781-7.967l6.594-31.72h7.679l-5.748 27.65c-1.124 5.407 2.349 10.702 7.756 11.826.687.143 1.371.211 2.045.211 4.64 0 8.8-3.246 9.781-7.967l6.594-31.72h13.266c5.522 0 10-4.477 10-10s-4.478-10-10-10h-9.108l4.426-21.292h13.221c5.522 0 10-4.477 10-10s-4.477-10-10-10zm-38.075 41.293h-7.679l4.426-21.292h7.679z" fill="#0a617d"/><path d="m425.663 114.022c5.522 0 10-4.477 10-10s-4.478-10-10-10h-9.064l5.61-26.987c1.124-5.407-2.349-10.702-7.756-11.826-5.413-1.13-10.702 2.349-11.826 7.755l-6.456 31.058h-7.679l5.61-26.987c1.124-5.407-2.349-10.702-7.756-11.826-5.413-1.13-10.702 2.349-11.826 7.755l-6.456 31.058h-13.188c-5.522 0-10 4.477-10 10s4.478 10 10 10h9.03l-4.426 21.292h-13.143c-5.522 0-10 4.477-10 10s4.478 10 10 10h8.986l-5.748 27.65c-1.124 5.407 2.349 10.702 7.756 11.826.687.143 1.371.211 2.045.211 4.64 0 8.8-3.246 9.781-7.967l6.594-31.72h7.679l-5.748 27.65c-1.124 5.407 2.349 10.702 7.756 11.826.687.143 1.371.211 2.045.211 4.64 0 8.8-3.246 9.781-7.967l6.594-31.72h13.266c5.522 0 10-4.477 10-10s-4.478-10-10-10h-9.108l4.426-21.292zm-38.075 21.293h-7.679l4.426-21.292h7.679z" fill="#08475e"/><path d="m303.905 158.11c8.427-11.378 14.202-20.597 14.546-21.146 2.924-4.685 1.497-10.854-3.188-13.778-4.685-2.925-10.854-1.496-13.778 3.188-.069.112-4.415 7.048-10.968 16.149l-24.057-28.006c3.156-2.094 5.942-4.132 8.471-6.263 15.292-12.887 14.705-27.887 9.058-37.627-7.723-13.317-25.213-19.091-40.682-13.433-2.496.914-4.626 1.969-6.516 3.228-6.767 4.512-11.335 11.926-12.535 20.34-1.176 8.237 1.069 16.432 6.158 22.483.022.026.045.053.067.079l5.325 6.2c-.599.342-1.205.687-1.82 1.038-13.606 7.756-22.835 21.253-24.686 36.104-1.741 13.977 3.122 27.276 13.696 37.448 7.43 7.148 16.627 10.888 26.712 10.887.685 0 1.375-.017 2.067-.052 16.619-.83 31.254-11.281 39.486-20.863l13.516 15.735c3.598 4.189 9.912 4.669 14.102 1.07s4.669-9.912 1.07-14.102zm-59.85-74.525c.393-2.747 1.825-5.186 3.83-6.523.546-.364 1.318-.729 2.294-1.087 7.123-2.606 13.986.335 16.508 4.683 2.7 4.657-1.035 9.26-4.645 12.301-2.363 1.992-5.271 4.036-8.735 6.242l-7.611-8.861c-1.414-1.7-2.011-4.159-1.641-6.755zm32.151 77.335c-6.794 7.985-17.013 13.633-25.428 14.053-5.401.264-9.947-1.456-13.916-5.273-7.585-7.297-8.382-15.209-7.715-20.563 1.075-8.625 6.586-16.551 14.743-21.201 1.806-1.029 3.532-2.013 5.188-2.961l28.979 33.739c-.611.738-1.228 1.474-1.851 2.206z" fill="#ff4a4a"/><g><path d="m319.95 176.79-16.045-18.68c8.427-11.378 14.202-20.597 14.546-21.146 2.924-4.685 1.497-10.854-3.188-13.778-4.685-2.925-10.854-1.496-13.778 3.188-.069.112-4.415 7.048-10.968 16.149l-24.057-28.006c3.156-2.094 5.942-4.132 8.471-6.263 15.292-12.887 14.705-27.887 9.058-37.627-5.645-9.734-16.51-15.431-27.988-15.586v19.973c4.797.124 8.87 2.513 10.687 5.645 2.7 4.657-1.035 9.26-4.645 12.301-1.721 1.451-3.739 2.931-6.042 4.479v35.594l22.059 25.681c-.612.738-1.229 1.475-1.853 2.207-5.436 6.389-13.063 11.273-20.206 13.189v20.396c14.853-2.197 27.736-11.66 35.263-20.42l13.516 15.735c3.598 4.189 9.912 4.669 14.102 1.07s4.667-9.912 1.068-14.101z" fill="#c30047"/></g></g></svg>